Coordinates
version=1
nRows=21
nColumns=19
inDegrees=yes

Units are S.I. units (second, meters, Newtons, ...)
If the header above contains a line with 'inDegrees', this indicates whether rotational values are in degrees (yes) or radians (no).

endheader
time	pelvis_tilt	pelvis_list	pelvis_rotation	pelvis_tx	pelvis_ty	pelvis_tz	hip_flexion_r	hip_adduction_r	hip_rotation_r	knee_angle_r	knee_angle_r_beta	ankle_angle_r	hip_flexion_l	hip_adduction_l	hip_rotation_l	knee_angle_l	knee_angle_l_beta	ankle_angle_l
     13.00666667	      2.78514097	     12.29253325	     -0.26559972	      2.20092510	      1.01963730	      0.98967504	    -16.39038609	    -16.13761262	     -6.18423217	     70.94790117	      1.23827447	    -16.47616476	     26.49039713	     13.68869589	     -9.65770127	     28.16343320	      0.49154464	     -0.39653631
     13.01333333	      3.05383190	     12.38142215	      0.12406518	      2.20061691	      1.01445659	      0.98987643	    -15.31258428	    -15.84402020	     -5.56692746	     74.17764835	      1.29464420	    -15.54763481	     25.93202206	     13.81547416	     -9.93412653	     29.91046527	      0.52203610	      0.57763733
     13.02000000	      3.59880234	     12.64093801	      0.56866204	      2.20020729	      1.00946710	      0.99001034	    -14.59106365	    -15.79819716	     -5.30128359	     77.25726060	      1.34839357	    -14.50659230	     25.03903215	     14.22116763	     -9.92013088	     31.72213139	      0.55365564	      2.05606588
     13.02666667	      3.20319647	     12.57623747	      1.04058083	      2.19932220	      1.00342656	      0.99002325	    -12.52851931	    -15.40041242	     -4.60760651	     80.54755458	      1.40582003	    -13.54354176	     25.34667912	     14.25228767	     -9.80546061	     33.99617226	      0.59334514	      3.76602416
     13.03333333	      3.61285329	     12.90061599	      1.48770388	      2.19841609	      0.99824898	      0.99004135	    -11.48460177	    -15.56556368	     -4.44621591	     83.55258899	      1.45826778	    -12.56830018	     24.69855028	     14.79367169	     -9.51083961	     36.19455307	      0.63171412	      5.87747278
     13.04000000	      2.80989907	     12.77034012	      2.11811346	      2.19695408	      0.99182915	      0.98972905	     -8.79448857	    -15.24628859	     -3.92930841	     86.78016843	      1.51459966	    -11.69169778	     25.52640208	     14.92935670	     -8.93701382	     38.79809223	      0.67715445	      8.08994807
     13.04666667	      2.47391227	     12.86475953	      2.69610380	      2.19534880	      0.98607054	      0.98943801	     -6.62192715	    -15.29360917	     -3.64123961	     89.80586806	      1.56740809	    -10.88219089	     25.76365289	     15.36635513	     -8.25914016	     41.29022883	      0.72065044	     10.46559139
     13.05333333	      2.06708934	     12.95769660	      3.29629744	      2.19347162	      0.98050163	      0.98908739	     -4.26646352	    -15.42251223	     -3.36827257	     92.73480761	      1.61852772	    -10.20591098	     26.02500645	     15.85877542	     -7.46158797	     43.72927587	      0.76321984	     12.81153238
     13.06000000	      1.64666599	     13.00663626	      3.90122733	      2.19126543	      0.97525237	      0.98871793	     -1.77374077	    -15.55988328	     -3.06711296	     95.54754364	      1.66761923	     -9.63509215	     26.21087288	     16.34951624	     -6.55152920	     46.03502338	      0.80346273	     15.07705131
     13.06666667	      1.23217216	     13.01351146	      4.46446588	      2.18882162	      0.97044764	      0.98848701	      0.84780199	    -15.68613451	     -2.68543555	     98.20851295	      1.71406190	     -9.15245767	     26.25975630	     16.78639989	     -5.59885148	     48.11827721	      0.83982237	     17.20675099
     13.07333333	      0.87887576	     13.01119675	      5.07180399	      2.18611020	      0.96620314	      0.98821467	      3.47928616	    -15.86394137	     -2.35654634	    100.67675754	      1.75714090	     -8.77935869	     26.07398600	     17.24094314	     -4.53565402	     49.92765811	      0.87140202	     19.11654857
     13.08000000	      0.60807259	     12.94509873	      5.62604058	      2.18319925	      0.96257005	      0.98808629	      6.13178758	    -15.98834464	     -1.97055384	    102.92523145	      1.79638417	     -8.43356353	     25.62535234	     17.56429446	     -3.49558962	     51.42988372	      0.89762080	     20.86019481
     13.08666667	      0.93214424	     12.96740985	      6.04867266	      2.18029898	      0.96025894	      0.98817796	      8.12953966	    -16.20539175	     -1.63721774	    104.80974926	      1.82927521	     -8.05483792	     24.26715981	     17.85114033	     -2.50002953	     52.47976783	      0.91594474	     22.53702849
     13.09333333	      0.19474893	     12.63606845	      6.66586057	      2.17679716	      0.95716967	      0.98799959	     11.55220448	    -16.08919146	     -1.13265026	    106.67545903	      1.86183799	     -7.75634879	     24.05041687	     17.85778765	     -1.42711682	     53.45072698	      0.93289117	     23.72469925
     13.10000000	      0.34383659	     12.47587059	      7.06079941	      2.17365432	      0.95575657	      0.98814495	     13.89798203	    -16.13716009	     -0.74010807	    108.06709066	      1.88612655	     -7.28410885	     22.56250289	     17.82186157	     -0.50606900	     53.90649339	      0.94084580	     24.97979751
     13.10666667	      0.13301774	     12.15082379	      7.38279735	      2.17030598	      0.95445620	      0.98829668	     16.78624672	    -15.99325919	     -0.18964595	    109.24186754	      1.90663027	     -6.81658494	     21.38677713	     17.55425348	      0.27669941	     54.12213267	      0.94460941	     25.98560527
     13.11333333	      0.41276024	     11.87069140	      7.66448238	      2.16713946	      0.95443231	      0.98842610	     19.00682090	    -15.88344376	      0.17889004	    109.98539485	      1.91960727	     -6.21090913	     19.44714959	     17.25640638	      1.14755417	     53.93750226	      0.94138700	     26.73884957
     13.12000000	      0.28413488	     11.46944868	      7.63470585	      2.16415062	      0.95425333	      0.98881366	     21.82515053	    -15.55220362	      0.88258051	    110.51502976	      1.92885114	     -5.46072881	     17.91825687	     16.65571619	      1.46773513	     53.53927389	      0.93443661	     27.66091674
     13.12666667	      0.30739652	     11.05885572	      7.69366218	      2.16133392	      0.95489346	      0.98890976	     24.31128308	    -15.26245862	      1.33144316	    110.65385592	      1.93127412	     -4.61844620	     16.05753747	     16.09066041	      1.99108542	     52.85730219	      0.92253396	     28.32623650
     13.13333333	      0.22689285	     10.59802778	      7.83161216	      2.15878503	      0.95614641	      0.98873705	     26.76267880	    -14.98922604	      1.58600859	    110.40482018	      1.92692762	     -3.81303804	     14.17320663	     15.50493305	      2.61687429	     51.90978086	      0.90599659	     28.60289300
     13.14000000	      0.19994319	     10.08998069	      7.34308943	      2.15651679	      0.95770532	      0.98928949	     29.26837899	    -14.25320713	      2.35773163	    109.90302268	      1.91816960	     -2.86836764	     12.23873728	     14.66916082	      2.55580857	     50.75151263	      0.88578100	     28.94907792
